# xmcd
#
# Track frame offsets: 
#        150
#        5174
#        16244
#        35495
#        51902
#        70725
#        84958
#        92485
#        117374
#        135467
#        143757
#        165331
#        188892
#        207484
#
# Disc length: 3004 seconds
#
# Revision: 0
# Processed by: cddbd v1.5.2PL0 Copyright (c) Steve Scherf et al.
# Submitted via: ExactAudioCopy v1.0b6
#
DISCID=b50bba0e
DTITLE=Various Artist - While We're Young (2015)
DYEAR=2015
DGENRE=Soundtrack
TTITLE0=James Murphy - Golden Years
TTITLE1=Tom Finucane: New London Consort, Philip Pickett - VIVALDI: Co
TTITLE1=ncerto for Lute, 2 Violins and Continuo in D, RV. 93 - Allegro
TTITLE2=Lionel Richie - All Night Long (All Night)
TTITLE3=A Tribe Called Quest - Buggin Out
TTITLE4=Psychedelic Furs - The Ghost In You
TTITLE5=Danny Kaye - The Inch Worm
TTITLE6=James Murphy - Only The Stars Above Welcome Me Home
TTITLE7=Haim - Falling (Duke Dumont Remix)
TTITLE8=Survivor - Eye Of The Tiger
TTITLE9=Antoine Duhamel and Michael Sanvoisin - VIVALDI: Andante du Conc
TTITLE9=erto Pour Flautino en Ut Majeur from the MGM Film "The Wild Ch
TTITLE9=ild"
TTITLE10=Foreigner - Waiting For A Girl Like You
TTITLE11=Paul McCartney and Wings - Nineteen Hundred and Eighty-Five
TTITLE12=James Murphy - We Used to Dance
TTITLE13=David Bowie - Golden Years (1999 Remastered Version)
EXTD=
EXTT0=
EXTT1=
EXTT2=
EXTT3=
EXTT4=
EXTT5=
EXTT6=
EXTT7=
EXTT8=
EXTT9=
EXTT10=
EXTT11=
EXTT12=
EXTT13=
PLAYORDER=
